<svg xmlns="http://www.w3.org/2000/svg" viewBox="0 0 650.55 379.81"><defs><style>.cls-1{fill:#3755be;}.cls-2{fill:#ff8e88;}.cls-3{fill:#fff;}.cls-4{fill:#1b1f3b;}</style></defs><g id="Calque_2" data-name="Calque 2"><g id="Calque_1-2" data-name="Calque 1"><path class="cls-1" d="M290.87,18.58c31-12,175.81-35,206.41,0s110.59,152,69.59,192-118,154-159,150-171-15-171-15-15-21-70-58-92-11-125-31c-19-11.51-17-85-15-120,.81-14.12,64-30,101-66S290.87,18.58,290.87,18.58Z"/><path class="cls-2" d="M271.17,18q63.94-3.65,128-4.57t128.07.89q35.93,1,71.83,2.89a6,6,0,0,0,6-6,6.14,6.14,0,0,0-6-6q-64-3.33-128-3.95T343,2.79Q307.05,4,271.17,6c-3.13.18-6.15,2.63-6,6,.14,3.1,2.65,6.19,6,6Z"/><path class="cls-2" d="M263.33,51.48l35.58-8.54,17.74-4.26c3-.71,5.9-1.39,8.87-2a68.44,68.44,0,0,1,7.71-1.16,58,58,0,0,1,8.94-.15c.68,0,1.35.1,2,.16.2,0,1.73.19,1.07.1,1.44.19,2.88.46,4.31.74A142.84,142.84,0,0,1,366.17,41c11.05,3.64,22,7.47,33.31,10.39a158.46,158.46,0,0,0,35.43,5.29c6,.18,11.91.1,17.87.28,3,.09,6.06.25,9.08.54.69.07,1.38.14,2.07.23l1,.12c-.15,0-.58-.08.12,0,1.48.22,2.95.46,4.43.72,11.9,2.11,23.58,5.36,35.68,6.23s24.14-.27,36.21,0c24.08.51,46.76,4.6,70.42,9.25l9,1.78c3.07.61,6.63-.87,7.38-4.19.68-3-.89-6.73-4.19-7.38-24-4.78-48.23-9.56-72.76-11.06-12.18-.74-24.3-.06-36.49-.08-3,0-5.92-.07-8.87-.26s-5.63-.49-8.11-.89c-5.81-.92-11.54-2.22-17.29-3.43a173.17,173.17,0,0,0-18.64-3c-5.93-.58-11.89-.63-17.84-.68s-12.11-.1-18.15-.66a129.08,129.08,0,0,1-16.23-2.65C398.16,39,387,35.32,375.82,31.6c-11.29-3.77-22.66-7.72-34.65-8.26-12.33-.56-24.51,3-36.38,5.85l-35.58,8.54-9.07,2.18A6.05,6.05,0,0,0,256,47.29a6.12,6.12,0,0,0,7.38,4.19Z"/><path class="cls-2" d="M265.47,95.79c22.93-2.22,45.91-4.24,68.95-4.47,11.42-.11,22.84.22,34.22,1.19,2.95.26,5.9.55,8.85.9,1.36.16,2.71.32,4.07.5.71.1.25,0,.1,0l1,.14,2.37.35c5.61.85,11.18,1.91,16.74,3.06,11.34,2.33,22.7,4.81,34.27,5.68s23.32,0,35-.18a167.57,167.57,0,0,1,17.22.65c5.84.55,10.23,1.2,16.07,2.11,11.75,1.83,23.47,3.84,35.35,4.61,23.24,1.5,46.5-.77,69.57-3.43l8.63-1c3.1-.36,6.15-2.49,6-6-.14-2.93-2.67-6.39-6-6-23.08,2.72-46.28,5.45-69.56,4.83A250,250,0,0,1,515,95.35c-11.69-1.85-23.42-3.86-35.28-4.28-11.55-.42-23.09.57-34.64.45s-21.6-1.81-33.1-4.17-22.85-4.59-34.46-5.94A325.89,325.89,0,0,0,343,79.33c-23-.25-46.05,1.5-69,3.64l-8.55.82c-3.11.3-6.15,2.54-6,6,.14,3,2.66,6.32,6,6Z"/><path class="cls-2" d="M268.73,138.58q38.08,1.24,76.19,1.19c25.49,0,51-.67,76.44-1.42,6.24-.19,12.49-.29,18.73,0,6,.26,12.07,1,17.59,1.77a349.43,349.43,0,0,0,37.08,3.81c24.1.9,48.27-.71,72.34,1.37a161.87,161.87,0,0,1,34.06,6.51c11.52,3.55,23,7.94,35.22,8.23a53.28,53.28,0,0,0,9.76-.8c3.1-.5,5.11-4.52,4.19-7.38-1.09-3.36-4.05-4.73-7.38-4.19a7.32,7.32,0,0,1-1.13.16c-.68.07-1.36.12-2.05.16a43.25,43.25,0,0,1-4.41,0,42.25,42.25,0,0,1-7.87-1,161.33,161.33,0,0,1-17.13-4.84,192.1,192.1,0,0,0-35.62-8c-23.72-2.92-47.67-1.55-71.5-1.95a286.31,286.31,0,0,1-35.18-2.55c-12.63-1.82-25.09-3.49-37.88-3.4-12.61.09-25.22.73-37.83,1s-25.4.47-38.09.55q-38.1.21-76.2-.87l-9.33-.29a6.05,6.05,0,0,0-6,6,6.12,6.12,0,0,0,6,6Z"/><path class="cls-3" d="M429.56,254.69c-.25-8.15-.76-16.3-1.59-24.41-.26-2.56-1.67-5.17-4.4-5.79-2.43-.55-5.63.31-6.78,2.76A46.52,46.52,0,0,0,414,235a6.41,6.41,0,0,0-5.1-1.68c-2.73.36-5.47,2.91-5.2,5.89q.62,6.88,1.24,13.78,0,2.58-.18,5.16c-.1,1.55-.24,3.1-.4,4.64l-.24,2.09c-.05.39-.08.78-.15,1.16.27-1.57,0,0,0,.27-.44,3.11-1,6.22-1.52,9.31-1.11,6.22-2.34,12.42-3.24,18.67-1,6.58-1.44,13.15-1.85,19.78-.1,1.71-.21,3.41-.36,5.12-.07.85-.14,1.7-.23,2.55a7.88,7.88,0,0,1-.3,2.53l.09-.67c0,.23-.06.46-.1.69-.08.53-.16,1.06-.26,1.59-.13.76-.27,1.52-.43,2.28a55,55,0,0,1-1.43,5.36,6,6,0,0,0,2.76,6.78c2.26,1.2,5.47,1.1,7.27-.94a39.6,39.6,0,0,0,7.86-15,5.78,5.78,0,0,0,2.76,2.36c-.38,4.92-.78,9.83-1.17,14.75-.26,3.13,2.94,6.13,6,6a6.16,6.16,0,0,0,6-6C428.12,312.62,430.45,283.67,429.56,254.69Z"/><path class="cls-3" d="M493.28,236.85a6.34,6.34,0,0,0-6.14,1.88,11,11,0,0,0-8.77-4.91,10.21,10.21,0,0,0-1.69.15v-2.71a6,6,0,0,0-12,0l.09,27.25c-2.95,14.52-5.29,29.24-5.31,44.07a78.19,78.19,0,0,0-7,20.48,82.75,82.75,0,0,0-.46,27.42c.63,4.3,7.34,5.95,10,2.64a39.38,39.38,0,0,0,3.08-4.35,35,35,0,0,0,.39,5.67c.34,2.47,3.42,4.51,5.79,4.4a6.2,6.2,0,0,0,5.78-4.4c8.49-28,10.24-57.33,15.18-86,1.4-8.14,3.07-16.22,5.2-24.2C498.28,241.2,496.45,237.57,493.28,236.85Z"/><path class="cls-3" d="M568.49,348.74l-.68-.52-.3-.24c-.72-.58-1.43-1.18-2.12-1.8-1.23-1.11-2.42-2.27-3.55-3.47s-2.14-2.41-3.14-3.66l-.25-.31-.81-1.13c-.5-.7-1-1.42-1.44-2.14-.68-1.07-1.32-2.16-1.93-3.27.55-3.11,1.12-6.21,1.75-9.3,1.74-8.57,3.89-17,6.21-25.45,1.25-4.51,2.39-9.28,2.12-14-.29-5-2.12-9.45-4.07-14l-.72-1.72a161.76,161.76,0,0,0,1.27-17.48,128.94,128.94,0,0,0-2-24.42c-.43-2.47-3.34-4.51-5.78-4.4a6.25,6.25,0,0,0-5.79,4.4,151.77,151.77,0,0,0-4.62,16.92A8.3,8.3,0,0,0,538.9,244a13.33,13.33,0,0,0-3,2.73c0-1.41,0-2.82,0-4.23a6.05,6.05,0,0,0-6-6,6.12,6.12,0,0,0-6,6,468.73,468.73,0,0,0,4.25,70.84q1.33,9.85,3.08,19.64a5.9,5.9,0,0,0,4.08,4.15c.07,1.06.15,2.11.22,3.17l2.22,33.51c.2,3.13,2.61,6.15,6,6a6.13,6.13,0,0,0,6-6q.56-12.23,2-24.38a62.33,62.33,0,0,0,5.62,5.64c1.63,1.43,3.35,2.76,5.09,4a6,6,0,0,0,4.62.61,6.13,6.13,0,0,0,3.59-2.76C572.3,353.82,571.2,350.74,568.49,348.74Zm-16.58-21.32a2.75,2.75,0,0,1,.14.34l-.09-.22ZM540.29,253c-.23-.23-.13-.15,0,0Z"/><path class="cls-4" d="M142.4,117.11q-11.24-.45-22.48-.16c-1.93,0-1.94,3,0,3q11.24-.28,22.48.16c1.93.08,1.92-2.92,0-3Z"/><path class="cls-4" d="M118.23,131.44a59.15,59.15,0,0,0-14.66-1.27c-1.92.08-1.93,3.08,0,3a56.16,56.16,0,0,1,13.87,1.16,1.53,1.53,0,0,0,1.84-1.05,1.5,1.5,0,0,0-1-1.84Z"/><path class="cls-4" d="M134.71,140.31a99.53,99.53,0,0,1-13.26.61c-1.93,0-1.93,3,0,3a99.53,99.53,0,0,0,13.26-.61,1.54,1.54,0,0,0,1.5-1.5,1.51,1.51,0,0,0-1.5-1.5Z"/><path class="cls-4" d="M139.82,155.81a35.28,35.28,0,0,0-16.26,1.89,1.55,1.55,0,0,0-1,1.85,1.53,1.53,0,0,0,1.85,1,33.19,33.19,0,0,1,15.46-1.79,1.5,1.5,0,0,0,0-3Z"/><path class="cls-4" d="M149.09,171.47a29.23,29.23,0,0,1-3.44.84l-.86.13c.34-.05-.1,0-.14,0l-.46.06c-.6.06-1.2.09-1.8.12a1.5,1.5,0,0,0,0,3,28.94,28.94,0,0,0,7.5-1.26,1.5,1.5,0,0,0-.8-2.9Z"/><path class="cls-4" d="M151.06,182.8a47,47,0,0,0-15.21,1.56,1.5,1.5,0,0,0,.8,2.89,44.08,44.08,0,0,1,14.41-1.45,1.5,1.5,0,0,0,0-3Z"/><path class="cls-4" d="M98,188.4H92.34a1.5,1.5,0,0,0,0,3H98a1.5,1.5,0,1,0,0-3Z"/><path class="cls-4" d="M100.51,173a48.21,48.21,0,0,1-15.46-1.34c-1.87-.47-2.67,2.42-.79,2.9A51.1,51.1,0,0,0,100.51,176a1.54,1.54,0,0,0,1.5-1.5,1.51,1.51,0,0,0-1.5-1.5Z"/><path class="cls-4" d="M81.11,153.67H71.92a1.5,1.5,0,1,0,0,3h9.19a1.5,1.5,0,0,0,0-3Z"/><path class="cls-4" d="M90.81,148.06H81.62a1.5,1.5,0,0,0,0,3h9.19a1.5,1.5,0,0,0,0-3Z"/><path class="cls-4" d="M82.48,135.83a20.69,20.69,0,0,0-8-2.56,1.49,1.49,0,0,0-1.5,1.5,1.55,1.55,0,0,0,1.5,1.5c.06,0,.61.08.24,0l.39.06.89.17c.62.14,1.23.3,1.83.5.29.09.57.19.86.3l.42.17h0l.18.08c.57.25,1.13.54,1.68.85a1.5,1.5,0,0,0,1.52-2.59Z"/><path class="cls-4" d="M91.83,116.91H89.28a1.54,1.54,0,0,0-1.06.44,1.52,1.52,0,0,0-.44,1.06,1.46,1.46,0,0,0,.44,1.06,1.54,1.54,0,0,0,1.06.44h2.55a1.56,1.56,0,0,0,1.06-.44,1.52,1.52,0,0,0,.44-1.06,1.5,1.5,0,0,0-.44-1.06,1.54,1.54,0,0,0-1.06-.44Z"/><path class="cls-4" d="M115.92,100.48l-8.67,1.63a1.51,1.51,0,0,0-1,1.84,1.54,1.54,0,0,0,1.85,1l8.66-1.63a1.49,1.49,0,0,0,1.05-1.84,1.54,1.54,0,0,0-1.84-1Z"/><path class="cls-4" d="M135.23,93.93H121.45a1.5,1.5,0,0,0,0,3h13.78a1.5,1.5,0,0,0,0-3Z"/><path class="cls-4" d="M116.85,73H98.47a1.5,1.5,0,0,0,0,3h18.38a1.5,1.5,0,0,0,0-3Z"/><path class="cls-4" d="M80.6,80.11a28.67,28.67,0,0,0-11,2.31,1.52,1.52,0,0,0-.54,2.06,1.53,1.53,0,0,0,2.05.53,24.91,24.91,0,0,1,9.45-1.9,1.5,1.5,0,0,0,0-3Z"/><path class="cls-4" d="M88.8,95.85c0-.2,0-.21,0,0,0-.21,0-.24,0-.08q.12-.28,0-.06c.12-.16.13-.17,0,0s-.12.11,0,0l-.21.14c-.06,0-.54.27-.23.14a11.12,11.12,0,0,1-2.43.55l-6.25,1.12a1.5,1.5,0,1,0,.79,2.89c2.49-.44,5-.87,7.45-1.33,2.07-.37,4.17-1.69,3.76-4.06a1.5,1.5,0,1,0-2.89.79Z"/><path class="cls-4" d="M50,103.1a38.13,38.13,0,0,0-7.54.62,1.49,1.49,0,0,0-1.05,1.84,1.53,1.53,0,0,0,1.84,1l.89-.15.48-.07.14,0c.58-.06,1.15-.13,1.72-.17,1.17-.09,2.34-.12,3.52-.1a1.52,1.52,0,0,0,1.5-1.5,1.54,1.54,0,0,0-1.5-1.5Z"/><path class="cls-4" d="M25,92.09q-11.74-.45-23.5-.16c-1.93,0-1.94,3,0,3q11.75-.29,23.5.16c1.93.07,1.93-2.93,0-3Z"/><path class="cls-4" d="M47.4,90.87H44.85a1.52,1.52,0,0,0-1.06.44,1.5,1.5,0,0,0-.44,1.06,1.56,1.56,0,0,0,.44,1.06,1.54,1.54,0,0,0,1.06.44H47.4a1.59,1.59,0,0,0,1.07-.44,1.51,1.51,0,0,0,.43-1.06,1.49,1.49,0,0,0-.43-1.06,1.59,1.59,0,0,0-1.07-.44Z"/><path class="cls-4" d="M37.18,109.16l-16.86,1.92a1.54,1.54,0,0,0-1.5,1.5,1.51,1.51,0,0,0,1.5,1.5l16.86-1.92a1.54,1.54,0,0,0,1.5-1.5,1.51,1.51,0,0,0-1.5-1.5Z"/><path class="cls-4" d="M63.74,118a27.22,27.22,0,0,0-12.5,2.21,1.52,1.52,0,0,0-.54,2.06,1.54,1.54,0,0,0,2,.54,23.92,23.92,0,0,1,11-1.81,1.5,1.5,0,0,0,0-3Z"/><path class="cls-4" d="M26.47,129.16h-2a1.54,1.54,0,0,0-1.06.44,1.23,1.23,0,0,0-.32.49,1.13,1.13,0,0,0-.12.57,1.46,1.46,0,0,0,.44,1.06,1.54,1.54,0,0,0,1.06.44h2a1.52,1.52,0,0,0,1.06-.44,1,1,0,0,0,.31-.48,1.15,1.15,0,0,0,.13-.58,1.5,1.5,0,0,0-1.5-1.5Z"/><path class="cls-4" d="M39.23,136.31H21.36a1.5,1.5,0,0,0,0,3H39.23a1.5,1.5,0,0,0,0-3Z"/><path class="cls-4" d="M26,153.63a81.35,81.35,0,0,1-14.8.51c-1.93-.1-1.92,2.9,0,3a81.35,81.35,0,0,0,14.8-.51,1.54,1.54,0,0,0,1.5-1.5,1.51,1.51,0,0,0-1.5-1.5Z"/><path class="cls-4" d="M44.85,156.74H28.51a1.5,1.5,0,0,0,0,3H44.85a1.5,1.5,0,0,0,0-3Z"/><path class="cls-4" d="M62.21,141.42H51a1.5,1.5,0,0,0,0,3H62.21a1.5,1.5,0,0,0,0-3Z"/><path class="cls-4" d="M61.7,164.88a71,71,0,0,0-10.09.68,1.5,1.5,0,0,0-1,1.85,1.53,1.53,0,0,0,1.84,1,66.41,66.41,0,0,1,9.29-.57,1.5,1.5,0,0,0,1.5-1.5,1.53,1.53,0,0,0-1.5-1.5Z"/><path class="cls-4" d="M44.85,180.23H29a1.5,1.5,0,0,0,0,3H44.85a1.5,1.5,0,0,0,0-3Z"/><path class="cls-4" d="M48.79,200.29a53.45,53.45,0,0,0-21.3-2.67c-1.91.15-1.93,3.16,0,3A51.35,51.35,0,0,1,48,203.18c1.83.62,2.61-2.27.79-2.89Z"/><path class="cls-4" d="M78.55,208.82H62.72a1.5,1.5,0,0,0,0,3H78.55a1.5,1.5,0,0,0,0-3Z"/><path class="cls-4" d="M88.56,210.12q-.86.48-1.74.87l-.12,0-.48.19-.85.31a22,22,0,0,1-3.64.89,1.5,1.5,0,0,0-1,1.84,1.54,1.54,0,0,0,1.84,1,22.75,22.75,0,0,0,7.55-2.61,1.51,1.51,0,0,0,.54-2.05,1.53,1.53,0,0,0-2-.54Z"/><path class="cls-4" d="M122,211.89h-6.64a1.51,1.51,0,0,0-1.5,1.5,1.53,1.53,0,0,0,1.5,1.5H122a1.5,1.5,0,0,0,0-3Z"/><path class="cls-4" d="M142.89,198.61H127.06a1.5,1.5,0,0,0,0,3h15.83a1.5,1.5,0,0,0,0-3Z"/><path class="cls-4" d="M148.66,214.64a28.46,28.46,0,0,1-10.36.77,1.51,1.51,0,0,0-1.5,1.5,1.54,1.54,0,0,0,1.5,1.5,31.32,31.32,0,0,0,11.16-.87,1.5,1.5,0,0,0-.8-2.9Z"/><path class="cls-4" d="M113.79,232.31h-1a1.27,1.27,0,0,0-.58.13,1.34,1.34,0,0,0-.79.8,1,1,0,0,0-.13.57l0,.4a1.39,1.39,0,0,0,.39.66l.3.24a1.54,1.54,0,0,0,.76.2h1a1.08,1.08,0,0,0,.58-.13,1.14,1.14,0,0,0,.48-.31,1.11,1.11,0,0,0,.31-.48,1.15,1.15,0,0,0,.13-.58l-.06-.4a1.57,1.57,0,0,0-.38-.66l-.31-.23a1.42,1.42,0,0,0-.75-.21Z"/><path class="cls-4" d="M147.51,236.64q-9.19-.52-18.4-.19c-1.93.06-1.94,3.06,0,3q9.19-.33,18.4.19c1.92.11,1.92-2.89,0-3Z"/><path class="cls-4" d="M99,242H84.68a1.5,1.5,0,0,0,0,3H99a1.5,1.5,0,0,0,0-3Z"/><path class="cls-4" d="M57.24,249.8l-5.18,1.25a1.5,1.5,0,1,0,.8,2.89L58,252.69a1.51,1.51,0,0,0,1-1.84,1.52,1.52,0,0,0-1.84-1Z"/><path class="cls-4" d="M70.89,236.91H56.09a1.5,1.5,0,0,0,0,3h14.8a1.5,1.5,0,0,0,0-3Z"/><path class="cls-4" d="M66.3,224.14H55.57a1.5,1.5,0,1,0,0,3H66.3a1.5,1.5,0,1,0,0-3Z"/><path class="cls-4" d="M32.09,224.14H19.83a1.5,1.5,0,0,0,0,3H32.09a1.5,1.5,0,0,0,0-3Z"/><path class="cls-4" d="M3.7,229.35l-2,1a1,1,0,0,0-.42.38,1.06,1.06,0,0,0-.27.51,1.12,1.12,0,0,0,0,.6,1.12,1.12,0,0,0,.18.56,1.5,1.5,0,0,0,.89.69l.4.05a1.54,1.54,0,0,0,.76-.2l2-1a1.08,1.08,0,0,0,.43-.39A1,1,0,0,0,5.9,231a1,1,0,0,0,0-.59,1.12,1.12,0,0,0-.18-.56,1.5,1.5,0,0,0-.89-.69l-.4-.06a1.55,1.55,0,0,0-.76.21Z"/><path class="cls-4" d="M26,247.12H15.74a1.5,1.5,0,0,0,0,3H26a1.5,1.5,0,0,0,0-3Z"/><path class="cls-4" d="M43.32,257.33H26.47a1.5,1.5,0,0,0,0,3H43.32a1.5,1.5,0,0,0,0-3Z"/><path class="cls-4" d="M49.07,266.69l-5.62,1a1.5,1.5,0,0,0-1,1.84,1.53,1.53,0,0,0,1.84,1.05l5.62-1a1.5,1.5,0,0,0,1-1.85,1.53,1.53,0,0,0-1.84-1Z"/><path class="cls-4" d="M77.55,274.8a27.89,27.89,0,0,0-7.46,2,1.51,1.51,0,0,0-.54,2.05,1.56,1.56,0,0,0,2.06.54c.15-.07.15-.06,0,0l.23-.1.35-.13c.27-.11.54-.21.82-.3.51-.18,1-.34,1.54-.48s1-.27,1.57-.38l.86-.16.37-.06.22,0a1.63,1.63,0,0,0,1.06-.44,1.54,1.54,0,0,0,.44-1.06c0-.72-.67-1.61-1.5-1.5Z"/><path class="cls-4" d="M85.19,253.25H78a1.5,1.5,0,0,0,0,3h7.15a1.5,1.5,0,0,0,0-3Z"/><path class="cls-4" d="M109.18,256.92a95.06,95.06,0,0,0-20.85.72,1.52,1.52,0,0,0-1,1.85,1.55,1.55,0,0,0,1.85,1.05,90.85,90.85,0,0,1,20.05-.62c1.93.15,1.92-2.85,0-3Z"/><path class="cls-4" d="M109.29,269.07l-11.77,3.52c-1.84.55-1.06,3.45.8,2.89L110.08,272c1.85-.55,1.06-3.45-.79-2.9Z"/><path class="cls-4" d="M106.89,283.05c-.32.19-.66.37-1,.53l-.47.23c-.17.07-.19.08-.06,0l-.28.11a14.6,14.6,0,0,1-2,.63,11.1,11.1,0,0,1-1.83.31,15.5,15.5,0,0,1-2.26,0,1.5,1.5,0,0,0-1.5,1.5,1.53,1.53,0,0,0,1.5,1.5,17.12,17.12,0,0,0,9.43-2.27,1.5,1.5,0,0,0-1.52-2.59Z"/><path class="cls-4" d="M131.15,280.82h-9.7a1.5,1.5,0,1,0,0,3h9.7a1.5,1.5,0,1,0,0-3Z"/><path class="cls-4" d="M137.79,256.31h-24a1.5,1.5,0,0,0,0,3h24a1.5,1.5,0,0,0,0-3Z"/><path class="cls-4" d="M134.21,265h-2.55a1.56,1.56,0,0,0-1.06.44,1.52,1.52,0,0,0-.44,1.06,1.5,1.5,0,0,0,.44,1.06,1.54,1.54,0,0,0,1.06.44h2.55a1.5,1.5,0,0,0,1.5-1.5,1.47,1.47,0,0,0-.44-1.06,1.54,1.54,0,0,0-1.06-.44Z"/><path class="cls-4" d="M152.09,279.29h-9.2a1.5,1.5,0,0,0,0,3h9.2a1.5,1.5,0,0,0,0-3Z"/><path class="cls-4" d="M136.77,77.59h-9.2a1.5,1.5,0,0,0,0,3h9.2a1.5,1.5,0,0,0,0-3Z"/><path class="cls-4" d="M52,286.88l-15.31.68c-1.93.08-1.94,3.08,0,3L52,289.88c1.92-.08,1.93-3.08,0-3Z"/><path class="cls-4" d="M32.09,274.7H15.23a1.5,1.5,0,0,0,0,3H32.09a1.5,1.5,0,0,0,0-3Z"/><path class="cls-4" d="M11.89,292.16a3.31,3.31,0,0,1-.22.76l.15-.36a3.6,3.6,0,0,1-.45.79l.23-.3a3.76,3.76,0,0,1-.69.69l.3-.23a4.28,4.28,0,0,1-1,.55l.36-.15a4,4,0,0,1-.94.26l.4-.05a3.47,3.47,0,0,1-.91,0l.39.06a4.54,4.54,0,0,1-.53-.12,1.51,1.51,0,0,0-1.85,1A1.54,1.54,0,0,0,8.23,297a5.18,5.18,0,0,0,4.15-.6,5.16,5.16,0,0,0,2.4-3.39,1.66,1.66,0,0,0-.15-1.16,1.52,1.52,0,0,0-.9-.69,1.49,1.49,0,0,0-1.15.15,1.42,1.42,0,0,0-.69.9Z"/><path class="cls-4" d="M29.11,302.74l-12.2,2.77a1.5,1.5,0,1,0,.79,2.89l12.21-2.76A1.52,1.52,0,0,0,31,303.79a1.54,1.54,0,0,0-1.85-1.05Z"/><path class="cls-4" d="M46.38,314.55a44.88,44.88,0,0,0-14.14,1.22c-1.87.46-1.08,3.36.8,2.89a42.47,42.47,0,0,1,13.34-1.11,1.51,1.51,0,0,0,1.5-1.5,1.53,1.53,0,0,0-1.5-1.5Z"/><path class="cls-4" d="M73.44,298.22a46.05,46.05,0,0,0-10.62.45,1.51,1.51,0,0,0-1,1.84,1.54,1.54,0,0,0,1.85,1.05,43,43,0,0,1,9.82-.34,1.5,1.5,0,0,0,1.5-1.5,1.54,1.54,0,0,0-1.5-1.5Z"/><path class="cls-4" d="M80.61,314.7a111.11,111.11,0,0,0-22.07,8c-1.74.84-.22,3.43,1.51,2.59a107.43,107.43,0,0,1,21.36-7.69c1.87-.46,1.08-3.35-.8-2.89Z"/><path class="cls-4" d="M108.7,310.27A53.56,53.56,0,0,0,98,310a1.5,1.5,0,1,0,0,3,53.56,53.56,0,0,1,10.74.29,1.51,1.51,0,0,0,1.5-1.5,1.53,1.53,0,0,0-1.5-1.5Z"/><path class="cls-4" d="M138.3,308.4h-23a1.5,1.5,0,0,0,0,3h23a1.5,1.5,0,0,0,0-3Z"/><path class="cls-4" d="M138.3,295.63h-7.15a1.5,1.5,0,1,0,0,3h7.15a1.5,1.5,0,0,0,0-3Z"/><path class="cls-4" d="M100.08,223.08a28.46,28.46,0,0,1-11.31,1.58,1.5,1.5,0,0,0,0,3A30.78,30.78,0,0,0,100.88,226a1.54,1.54,0,0,0,1-1.85,1.51,1.51,0,0,0-1.84-1Z"/><path class="cls-4" d="M130.66,174.89a124.67,124.67,0,0,0-15.34-.23c-1.92.09-1.93,3.09,0,3a124.67,124.67,0,0,1,15.34.23,1.5,1.5,0,0,0,0-3Z"/><path class="cls-4" d="M78.55,188.91h-9.7a1.5,1.5,0,0,0,0,3h9.7a1.5,1.5,0,0,0,0-3Z"/><path class="cls-4" d="M14.22,205.72,2,205.12a1.5,1.5,0,0,0,0,3l12.26.6a1.5,1.5,0,0,0,0-3Z"/><path class="cls-4" d="M28,187.34a43.05,43.05,0,0,1-13.39-.94c-1.87-.44-2.68,2.45-.79,2.89A45.69,45.69,0,0,0,28,190.34a1.54,1.54,0,0,0,1.5-1.5,1.51,1.51,0,0,0-1.5-1.5Z"/><path class="cls-4" d="M28.51,163.89H12.68a1.5,1.5,0,0,0,0,3H28.51a1.5,1.5,0,0,0,0-3Z"/><path class="cls-4" d="M40.69,74.94l-8.24-1.73a1.5,1.5,0,1,0-.8,2.89l8.24,1.73a1.5,1.5,0,0,0,.8-2.89Z"/></g></g></svg>