<svg id="bg-header" xmlns="http://www.w3.org/2000/svg" xmlns:xlink="http://www.w3.org/1999/xlink" width="1920" height="850.366" viewBox="0 0 1920 850.366">
  <defs>
    <clipPath id="clip-path">
      <path id="Tracé_30" data-name="Tracé 30" d="M0,0H1920V559.324s-303.6,291.042-892.533,291.042S0,602.388,0,602.388Z" fill="#3755be"/>
    </clipPath>
  </defs>
  <path id="Tracé_1" data-name="Tracé 1" d="M0,0H1920V559.324s-303.6,291.042-892.533,291.042S0,602.388,0,602.388Z" fill="#3755be"/>
  <g id="Groupe_5" data-name="Groupe 5" clip-path="url(#clip-path)">
    <g id="Groupe_2" data-name="Groupe 2" transform="translate(1261.601 343.599)">
      <path id="Tracé_2" data-name="Tracé 2" d="M923.472,766.685c-75.2-120.935,22.489-347.174,175.7-310.63s192.562,0,250.19-89.956,130.718-179.912,231.918-73.089,326.091,441.347,75.9,510.22S1059.812,985.953,923.472,766.685Z" transform="translate(-897.577 -244.456)" fill="#ff8e88"/>
      <g id="Groupe_1" data-name="Groupe 1" transform="translate(157.403 208.783)">
        <path id="Tracé_3" data-name="Tracé 3" d="M1153.614,453.966l-4.829,12.72a6.4,6.4,0,0,0-.15,3.364,6.274,6.274,0,0,0,1,3.134,8.432,8.432,0,0,0,11.538,3.026l1.708-1.318a8.433,8.433,0,0,0,2.169-3.722l4.828-12.72a6.388,6.388,0,0,0,.15-3.364,6.271,6.271,0,0,0-1-3.136,8.432,8.432,0,0,0-11.538-3.025l-1.706,1.318a8.421,8.421,0,0,0-2.169,3.722Z" transform="translate(-953.223 -370.77)" fill="#fff"/>
        <path id="Tracé_4" data-name="Tracé 4" d="M1081.17,523.362" transform="translate(-980.52 -340.125)" fill="none" stroke="#fff" stroke-linecap="round" stroke-miterlimit="10" stroke-width="4"/>
        <path id="Tracé_5" data-name="Tracé 5" d="M1108.371,518.161l-1.081,2.152a6.279,6.279,0,0,0-1,3.136,8.66,8.66,0,0,0,4.027,8.4l1,.42a8.446,8.446,0,0,0,2.752.715,8.16,8.16,0,0,0,1.015,0,8.447,8.447,0,0,0,2.752-.715h0a8.371,8.371,0,0,0,2.367-1.421,8.506,8.506,0,0,0,1.656-2.025l1.081-2.151a6.3,6.3,0,0,0,1-3.136,8.658,8.658,0,0,0-4.027-8.4l-1-.422a8.461,8.461,0,0,0-2.752-.714,8.135,8.135,0,0,0-1.013,0,8.478,8.478,0,0,0-2.752.714h0a7.852,7.852,0,0,0-4.023,3.446Z" transform="translate(-970.396 -343.928)" fill="#fff"/>
        <path id="Tracé_6" data-name="Tracé 6" d="M1184.781,466.857l5.011,13.063a9.438,9.438,0,0,0,3.875,5.039,8.433,8.433,0,0,0,11.538-3.025c1-1.895,1.65-4.412.85-6.5l-5.009-13.063a9.441,9.441,0,0,0-3.877-5.04,8.611,8.611,0,0,0-6.5-.849,8.524,8.524,0,0,0-5.04,3.875c-1,1.893-1.65,4.412-.85,6.5Z" transform="translate(-938.645 -367.373)" fill="#fff"/>
        <path id="Tracé_7" data-name="Tracé 7" d="M1297.456,409.868h6.46a8.668,8.668,0,0,0,8.433-8.433l-.3-2.242a8.44,8.44,0,0,0-2.169-3.722l-1.708-1.318a8.381,8.381,0,0,0-4.256-1.151h-6.46a8.668,8.668,0,0,0-8.433,8.433l.3,2.242a8.428,8.428,0,0,0,2.169,3.722l1.706,1.318a8.385,8.385,0,0,0,4.256,1.151Z" transform="translate(-896.225 -392.996)" fill="#fff"/>
        <path id="Tracé_8" data-name="Tracé 8" d="M1133.066,602.42l1.077,1.077a8.676,8.676,0,0,0,11.926,0l1.32-1.706a8.42,8.42,0,0,0,1.151-4.257l-.3-2.242a8.413,8.413,0,0,0-2.169-3.721l-1.077-1.077a8.671,8.671,0,0,0-11.926,0l-1.318,1.706a8.385,8.385,0,0,0-1.151,4.256l.3,2.242a8.418,8.418,0,0,0,2.169,3.722Z" transform="translate(-960.475 -313.903)" fill="#fff"/>
        <path id="Tracé_9" data-name="Tracé 9" d="M1029.853,579.67a31.552,31.552,0,0,0-6.085-.062,43.656,43.656,0,0,0-8.009,1.368,8.75,8.75,0,0,0-5.04,3.877,6.291,6.291,0,0,0-1,3.134,6.4,6.4,0,0,0,.152,3.364,8.527,8.527,0,0,0,3.875,5.04,8.746,8.746,0,0,0,6.5.85,32.346,32.346,0,0,1,4.335-.908l-2.242.3a31.868,31.868,0,0,1,7.517-.1,8.668,8.668,0,0,0,8.433-8.433,8.526,8.526,0,0,0-2.471-5.962l-1.706-1.318a8.4,8.4,0,0,0-4.256-1.153Z" transform="translate(-1009.562 -317.361)" fill="#fff"/>
        <path id="Tracé_10" data-name="Tracé 10" d="M1237.571,442.433a68.306,68.306,0,0,0-.893,18.449,9.382,9.382,0,0,0,2.471,5.964,8.434,8.434,0,0,0,11.926,0c1.427-1.555,2.686-3.773,2.47-5.964a60.492,60.492,0,0,1,.209-13.734l-.3,2.242q.169-1.242.381-2.474a6.386,6.386,0,0,0,.15-3.364,6.271,6.271,0,0,0-1-3.136,8.432,8.432,0,0,0-11.538-3.025c-1.743,1.123-3.507,2.911-3.875,5.04Z" transform="translate(-917.564 -375.447)" fill="#fff"/>
        <path id="Tracé_11" data-name="Tracé 11" d="M1291.669,525.189a61.87,61.87,0,0,1,1.8,8.528l-.3-2.242a61.86,61.86,0,0,1,.519,9.745,8.433,8.433,0,1,0,16.867,0,68.737,68.737,0,0,0-2.618-20.514,8.754,8.754,0,0,0-3.875-5.04,8.433,8.433,0,0,0-11.538,3.025,8.725,8.725,0,0,0-.85,6.5Z" transform="translate(-895.27 -343.716)" fill="#fff"/>
        <path id="Tracé_12" data-name="Tracé 12" d="M1334.256,482.12l2.082-13.447a6.394,6.394,0,0,0,.15-3.362,6.28,6.28,0,0,0-1-3.136,8.432,8.432,0,0,0-11.538-3.026c-1.723,1.112-3.547,2.922-3.876,5.04l-2.08,13.447a6.381,6.381,0,0,0-.15,3.362,6.264,6.264,0,0,0,1,3.136,8.434,8.434,0,0,0,11.538,3.026c1.723-1.112,3.547-2.922,3.875-5.04Z" transform="translate(-884.598 -366.623)" fill="#fff"/>
        <path id="Tracé_13" data-name="Tracé 13" d="M1367.963,466.645" transform="translate(-864.208 -363.127)" fill="none" stroke="#fff" stroke-linecap="round" stroke-miterlimit="10" stroke-width="4"/>
        <path id="Tracé_14" data-name="Tracé 14" d="M1308.1,442.352l.61-2.329a6.382,6.382,0,0,0,.15-3.362,6.281,6.281,0,0,0-1-3.136,9.415,9.415,0,0,0-5.041-3.875l-2.242-.3a8.412,8.412,0,0,0-4.256,1.151l-1.708,1.32a8.442,8.442,0,0,0-2.169,3.721l-.61,2.329a6.4,6.4,0,0,0-.15,3.364,6.273,6.273,0,0,0,1,3.134,9.441,9.441,0,0,0,5.04,3.877l2.242.3a8.386,8.386,0,0,0,4.256-1.151l1.708-1.318a8.44,8.44,0,0,0,2.169-3.722Z" transform="translate(-895.206 -378.254)" fill="#fff"/>
        <path id="Tracé_15" data-name="Tracé 15" d="M1216.65,519.411l-7.614-11.736A8.893,8.893,0,0,0,1204,503.8a6.379,6.379,0,0,0-3.362-.15,6.267,6.267,0,0,0-3.136,1,8.431,8.431,0,0,0-3.026,11.538l7.614,11.736a8.893,8.893,0,0,0,5.04,3.875,6.385,6.385,0,0,0,3.363.15,6.261,6.261,0,0,0,3.134-1,8.431,8.431,0,0,0,3.026-11.538Z" transform="translate(-935.025 -348.183)" fill="#fff"/>
        <path id="Tracé_16" data-name="Tracé 16" d="M1089.28,606.687l-6.319,1.341a9.438,9.438,0,0,0-5.04,3.877,6.289,6.289,0,0,0-1,3.136,6.4,6.4,0,0,0,.15,3.362l.85,2.014a8.482,8.482,0,0,0,3.026,3.026l2.014.85a8.487,8.487,0,0,0,4.484,0l6.319-1.342a9.438,9.438,0,0,0,5.039-3.875,6.27,6.27,0,0,0,1-3.136,6.385,6.385,0,0,0-.151-3.364l-.85-2.014a8.463,8.463,0,0,0-3.025-3.025l-2.014-.85a8.488,8.488,0,0,0-4.484,0Z" transform="translate(-982.308 -306.454)" fill="#fff"/>
        <path id="Tracé_17" data-name="Tracé 17" d="M1047.111,443.084l-1.276-.829a6.265,6.265,0,0,0-3.136-1,8.663,8.663,0,0,0-8.4,4.026l-.85,2.016a8.484,8.484,0,0,0,0,4.484l.85,2.014a8.479,8.479,0,0,0,3.025,3.026l1.278.829a6.289,6.289,0,0,0,3.134,1,8.665,8.665,0,0,0,8.4-4.027l.85-2.014a8.513,8.513,0,0,0,0-4.484l-.85-2.014a8.472,8.472,0,0,0-3.026-3.026Z" transform="translate(-999.998 -373.489)" fill="#fff"/>
        <path id="Tracé_18" data-name="Tracé 18" d="M1216.376,420.383a38.554,38.554,0,0,0,15.64-4.595,8.124,8.124,0,0,0,4.026-8.4,6.27,6.27,0,0,0-1-3.136,8.507,8.507,0,0,0-5.039-3.875l-2.242-.3a8.39,8.39,0,0,0-4.258,1.151q-1.187.624-2.422,1.151l2.016-.85a31.707,31.707,0,0,1-7.937,2.173l2.242-.3q-.513.067-1.025.121a8.663,8.663,0,0,0-8.433,8.433,8.521,8.521,0,0,0,2.469,5.964c1.55,1.422,3.778,2.7,5.964,2.47Z" transform="translate(-929.108 -390.126)" fill="#fff"/>
        <path id="Tracé_19" data-name="Tracé 19" d="M1279.879,539.9a105.217,105.217,0,0,1-21.769-.171c-2.007-.225-4.6,1.1-5.963,2.47a8.433,8.433,0,0,0,0,11.928,9.724,9.724,0,0,0,5.963,2.47,105.217,105.217,0,0,0,21.769.171,9.089,9.089,0,0,0,5.964-2.469,8.434,8.434,0,0,0,0-11.926c-1.557-1.429-3.77-2.68-5.964-2.471Z" transform="translate(-912.183 -333.496)" fill="#fff"/>
        <path id="Tracé_20" data-name="Tracé 20" d="M1130.237,669.847a68.9,68.9,0,0,0-3.091-18.22,8.875,8.875,0,0,0-3.875-5.04,8.619,8.619,0,0,0-6.5-.85,8.439,8.439,0,0,0-5.891,10.374,60.79,60.79,0,0,1,2.311,10.275l-.3-2.242q.369,2.842.478,5.7a8.829,8.829,0,0,0,2.469,5.962,8.434,8.434,0,0,0,14.4-5.962Z" transform="translate(-968.599 -290.619)" fill="#fff"/>
        <path id="Tracé_21" data-name="Tracé 21" d="M1154.495,515.19q-1.269-2.4-2.33-4.891l.85,2.016a61.121,61.121,0,0,1-3.73-12.5,8.5,8.5,0,0,0-3.875-5.04,8.614,8.614,0,0,0-6.5-.849,8.52,8.52,0,0,0-5.039,3.875,9.457,9.457,0,0,0-.85,6.5,68.106,68.106,0,0,0,6.911,19.408,8.434,8.434,0,1,0,14.563-8.513Z" transform="translate(-959.581 -352.189)" fill="#fff"/>
        <path id="Tracé_22" data-name="Tracé 22" d="M1457.7,424.956l2.184-8.386a6.386,6.386,0,0,0,.15-3.364,6.271,6.271,0,0,0-1-3.136A9.438,9.438,0,0,0,1454,406.2l-2.242-.3a8.391,8.391,0,0,0-4.257,1.151,8.707,8.707,0,0,0-3.875,5.04l-2.184,8.386a6.385,6.385,0,0,0-.15,3.364,6.272,6.272,0,0,0,1,3.136,9.438,9.438,0,0,0,5.039,3.875l2.242.3a8.386,8.386,0,0,0,4.257-1.151,8.7,8.7,0,0,0,3.875-5.04Z" transform="translate(-834.533 -387.765)" fill="#fff"/>
        <path id="Tracé_23" data-name="Tracé 23" d="M1415.483,506.83a27.816,27.816,0,0,1-4.235.95l2.242-.3a28.159,28.159,0,0,1-7.222,0l2.242.3a28.183,28.183,0,0,1-6.965-1.912l2.016.85a27.626,27.626,0,0,1-3.833-2.037,8.509,8.509,0,0,0-11.54,3.026,8.616,8.616,0,0,0,3.026,11.538,35.234,35.234,0,0,0,28.752,3.844,8.832,8.832,0,0,0,5.041-3.875,8.618,8.618,0,0,0,.85-6.5c-1.373-4.239-5.86-7.284-10.375-5.891Z" transform="translate(-856.442 -348.163)" fill="#fff"/>
      </g>
    </g>
    <g id="Groupe_4" data-name="Groupe 4" transform="translate(128.548 35.79)">
      <path id="Tracé_24" data-name="Tracé 24" d="M298.907,50.176c227-44.219,476.317-39.009,441.416,98.548S730.057,688.688,452.889,637.36,42.271,464.9,107.97,351.981,140.819,80.973,298.907,50.176Z" transform="translate(-91.457 -25.463)" fill="#1b1f3b"/>
      <g id="Groupe_3" data-name="Groupe 3" transform="translate(88.24 162.767)">
        <path id="Tracé_25" data-name="Tracé 25" d="M156.706,314.337l1.077,1.077A8.154,8.154,0,0,0,167,317.156a6.333,6.333,0,0,0,2.714-1.743l1.318-1.708a8.385,8.385,0,0,0,1.151-4.256l-.3-2.242a8.433,8.433,0,0,0-2.169-3.722l-1.077-1.077a8.154,8.154,0,0,0-9.213-1.743,6.324,6.324,0,0,0-2.714,1.743l-1.318,1.708a8.381,8.381,0,0,0-1.151,4.256l.3,2.242a8.44,8.44,0,0,0,2.169,3.722Z" transform="translate(-154.236 -76.914)" fill="#3755be"/>
        <path id="Tracé_26" data-name="Tracé 26" d="M315.31,237.1a62.179,62.179,0,0,1,1.8,8.528l-.3-2.242a61.719,61.719,0,0,1,.519,9.745,8.433,8.433,0,1,0,16.867,0,68.794,68.794,0,0,0-2.617-20.514,8.766,8.766,0,0,0-3.877-5.04,8.611,8.611,0,0,0-6.5-.849,8.523,8.523,0,0,0-5.04,3.875,8.72,8.72,0,0,0-.85,6.5Z" transform="translate(-89.031 -106.727)" fill="#3755be"/>
        <path id="Tracé_27" data-name="Tracé 27" d="M331.743,154.269l.61-2.329a6.386,6.386,0,0,0,.15-3.363,6.262,6.262,0,0,0-1-3.134,9.426,9.426,0,0,0-5.04-3.877l-2.242-.3a8.385,8.385,0,0,0-4.256,1.151l-1.706,1.318a8.419,8.419,0,0,0-2.169,3.722l-.61,2.329a6.4,6.4,0,0,0-.152,3.362,6.294,6.294,0,0,0,1,3.136,9.447,9.447,0,0,0,5.04,3.875l2.242.3a8.418,8.418,0,0,0,4.257-1.151l1.706-1.32a8.415,8.415,0,0,0,2.169-3.721Z" transform="translate(-88.967 -141.265)" fill="#3755be"/>
        <path id="Tracé_28" data-name="Tracé 28" d="M240.29,231.329l-7.614-11.736a8.9,8.9,0,0,0-5.04-3.877,6.394,6.394,0,0,0-3.362-.15,6.28,6.28,0,0,0-3.136,1,8.433,8.433,0,0,0-3.025,11.538l7.614,11.738a8.891,8.891,0,0,0,5.039,3.875,6.385,6.385,0,0,0,3.364.15,6.271,6.271,0,0,0,3.136-1,8.433,8.433,0,0,0,3.025-11.538Z" transform="translate(-128.786 -111.195)" fill="#3755be"/>
        <path id="Tracé_29" data-name="Tracé 29" d="M303.519,251.821a105.406,105.406,0,0,1-21.768-.172c-2.007-.225-4.6,1.1-5.964,2.47a8.434,8.434,0,0,0,0,11.926,9.718,9.718,0,0,0,5.964,2.471,105.4,105.4,0,0,0,21.768.172,9.093,9.093,0,0,0,5.964-2.47,8.436,8.436,0,0,0,0-11.928c-1.557-1.429-3.77-2.68-5.964-2.47Z" transform="translate(-105.943 -96.507)" fill="#3755be"/>
      </g>
    </g>
  </g>
</svg>
