<svg xmlns="http://www.w3.org/2000/svg" viewBox="0 0 226.75 208"><defs><style>.cls-1{fill:#f3f5fb;}</style></defs><g id="Calque_2" data-name="Calque 2"><g id="Calque_1-2" data-name="Calque 1"><path class="cls-1" d="M101.16,162h0a12.6,12.6,0,0,1-12.6-12.6V110.52A3.53,3.53,0,0,0,85,107h0a3.52,3.52,0,0,0-3.52,3.52v38.92A12.6,12.6,0,0,1,68.92,162h0a12.6,12.6,0,0,1-12.6-12.6V59.92a12.6,12.6,0,0,1,12.6-12.6h0a12.6,12.6,0,0,1,12.6,12.6V89.56A3.51,3.51,0,0,0,85,93.08h0a3.52,3.52,0,0,0,3.52-3.52V59.92a12.6,12.6,0,0,1,12.6-12.6h12.6V149.44A12.6,12.6,0,0,1,101.16,162Z"/><path class="cls-1" d="M131.16,162h0a12.6,12.6,0,0,1-12.6-12.6V59.92a12.6,12.6,0,0,1,12.6-12.6h12.6V149.44A12.6,12.6,0,0,1,131.16,162Z"/><path class="cls-1" d="M159.8,134.28H148.4V58.72a11.4,11.4,0,0,1,11.4-11.4h0a11.41,11.41,0,0,1,11.4,11.4v64.16A11.4,11.4,0,0,1,159.8,134.28Zm0,27.93h-.11a11.6,11.6,0,0,1-11.6-11.61h0a11.6,11.6,0,0,1,11.6-11.6h.11a11.6,11.6,0,0,1,11.6,11.6h0A11.6,11.6,0,0,1,159.85,162.21Z"/><path class="cls-1" d="M222.81,100.37a3.94,3.94,0,0,1-3.94-3.93A88.67,88.67,0,0,0,130.31,7.87a3.94,3.94,0,1,1,0-7.87,96.55,96.55,0,0,1,96.44,96.44A3.94,3.94,0,0,1,222.81,100.37Z"/><path class="cls-1" d="M204.24,103.68h-.18a4,4,0,0,1-3.76-4.11c0-1,.07-2.08.07-3.13a70.14,70.14,0,0,0-70.06-70.07,3.94,3.94,0,1,1,0-7.87,78,78,0,0,1,77.94,77.94c0,1.16,0,2.32-.08,3.48A3.94,3.94,0,0,1,204.24,103.68Z"/><path class="cls-1" d="M3.94,107.63a3.93,3.93,0,0,1,3.93,3.93,88.67,88.67,0,0,0,88.57,88.57,3.94,3.94,0,0,1,0,7.87A96.55,96.55,0,0,1,0,111.56,3.93,3.93,0,0,1,3.94,107.63Z"/><path class="cls-1" d="M22.51,104.32h.17a3.94,3.94,0,0,1,3.76,4.11c0,1-.07,2.08-.07,3.13a70.15,70.15,0,0,0,70.07,70.07,3.94,3.94,0,0,1,0,7.87A78,78,0,0,1,18.5,111.56c0-1.16,0-2.32.08-3.48A3.93,3.93,0,0,1,22.51,104.32Z"/></g></g></svg>